<svg width="500" height="500" viewBox="0 0 500 500" fill="none" xmlns="http://www.w3.org/2000/svg">
<rect width="500" height="500" fill="#005B6E"/>
<path d="M138.579 152.56V248.752C138.579 260.656 134.931 270.064 127.635 276.976C120.467 283.888 110.995 287.344 99.2193 287.344C87.4433 287.344 77.9073 283.888 70.6113 276.976C63.4433 270.064 59.8593 260.656 59.8593 248.752H81.9393C82.0673 254.64 83.5393 259.312 86.3553 262.768C89.2993 266.224 93.5873 267.952 99.2193 267.952C104.851 267.952 109.139 266.224 112.083 262.768C115.027 259.184 116.499 254.512 116.499 248.752V152.56H138.579ZM274.41 286L257.898 269.488C251.498 275.888 244.522 280.688 236.97 283.888C229.418 286.96 220.97 288.496 211.626 288.496C202.154 288.496 193.77 286.832 186.474 283.504C179.178 280.176 173.546 275.44 169.578 269.296C165.61 263.024 163.626 255.792 163.626 247.6C163.626 238.384 166.25 230.192 171.498 223.024C176.746 215.728 184.554 209.968 194.922 205.744C191.21 201.264 188.586 197.104 187.05 193.264C185.514 189.296 184.746 184.944 184.746 180.208C184.746 174.32 186.218 169.072 189.162 164.464C192.234 159.856 196.586 156.208 202.218 153.52C207.85 150.832 214.378 149.488 221.802 149.488C229.354 149.488 235.754 150.96 241.002 153.904C246.378 156.72 250.346 160.624 252.906 165.616C255.594 170.608 256.682 176.176 256.17 182.32H234.282C234.41 177.584 233.258 173.936 230.826 171.376C228.394 168.688 225.066 167.344 220.842 167.344C216.618 167.344 213.162 168.624 210.474 171.184C207.914 173.616 206.634 176.624 206.634 180.208C206.634 183.664 207.594 187.12 209.514 190.576C211.562 193.904 215.082 198.256 220.074 203.632L255.402 238.768L269.034 216.304H292.65L275.37 245.872L270.57 253.744L303.018 286H274.41ZM211.626 269.872C223.658 269.872 234.282 264.944 243.498 255.088L208.17 219.568C193.066 225.584 185.514 234.672 185.514 246.832C185.514 253.36 187.946 258.864 192.81 263.344C197.674 267.696 203.946 269.872 211.626 269.872ZM307.193 218.992C307.193 205.936 310.201 194.224 316.217 183.856C322.361 173.488 330.617 165.424 340.985 159.664C351.481 153.776 362.937 150.832 375.353 150.832C389.561 150.832 402.169 154.352 413.177 161.392C424.313 168.304 432.377 178.16 437.369 190.96H411.065C407.609 183.92 402.809 178.672 396.665 175.216C390.521 171.76 383.417 170.032 375.353 170.032C366.521 170.032 358.649 172.016 351.737 175.984C344.825 179.952 339.385 185.648 335.417 193.072C331.577 200.496 329.657 209.136 329.657 218.992C329.657 228.848 331.577 237.488 335.417 244.912C339.385 252.336 344.825 258.096 351.737 262.192C358.649 266.16 366.521 268.144 375.353 268.144C383.417 268.144 390.521 266.416 396.665 262.96C402.809 259.504 407.609 254.256 411.065 247.216H437.369C432.377 260.016 424.313 269.872 413.177 276.784C402.169 283.696 389.561 287.152 375.353 287.152C362.809 287.152 351.353 284.272 340.985 278.512C330.617 272.624 322.361 264.496 316.217 254.128C310.201 243.76 307.193 232.048 307.193 218.992Z" fill="#FFCE00"/>
<path d="M138.691 325.694C136.57 321.232 133.498 317.794 129.475 315.381C125.453 312.894 120.772 311.651 115.433 311.651C110.093 311.651 105.266 312.894 100.951 315.381C96.7087 317.794 93.3442 321.305 90.8575 325.913C88.4439 330.448 87.2371 335.714 87.2371 341.711C87.2371 347.709 88.4439 352.975 90.8575 357.509C93.3442 362.044 96.7087 365.555 100.951 368.042C105.266 370.455 110.093 371.662 115.433 371.662C122.893 371.662 129.037 369.431 133.864 364.97C138.691 360.508 141.507 354.474 142.311 346.868H111.812V338.749H152.953V346.429C152.368 352.719 150.393 358.497 147.029 363.763C143.665 368.956 139.24 373.088 133.754 376.16C128.269 379.159 122.161 380.658 115.433 380.658C108.338 380.658 101.865 379.013 96.0139 375.721C90.1627 372.357 85.5183 367.712 82.0807 361.788C78.7162 355.864 77.034 349.171 77.034 341.711C77.034 334.251 78.7162 327.559 82.0807 321.634C85.5183 315.637 90.1627 310.992 96.0139 307.701C101.865 304.337 108.338 302.654 115.433 302.654C123.551 302.654 130.719 304.666 136.936 308.688C143.226 312.711 147.797 318.38 150.649 325.694H138.691ZM204.772 380L186.56 348.733H174.492V380H164.508V303.532H189.193C194.971 303.532 199.835 304.52 203.784 306.494C207.807 308.469 210.806 311.139 212.78 314.503C214.755 317.868 215.743 321.707 215.743 326.023C215.743 331.289 214.207 335.933 211.135 339.956C208.136 343.979 203.601 346.648 197.531 347.965L216.73 380H204.772ZM174.492 340.724H189.193C194.605 340.724 198.664 339.407 201.371 336.774C204.077 334.068 205.43 330.484 205.43 326.023C205.43 321.488 204.077 317.977 201.371 315.491C198.738 313.004 194.678 311.76 189.193 311.76H174.492V340.724ZM264.278 380.768C257.184 380.768 250.711 379.122 244.859 375.831C239.008 372.467 234.364 367.822 230.926 361.898C227.562 355.9 225.88 349.171 225.88 341.711C225.88 334.251 227.562 327.559 230.926 321.634C234.364 315.637 239.008 310.992 244.859 307.701C250.711 304.337 257.184 302.654 264.278 302.654C271.446 302.654 277.955 304.337 283.807 307.701C289.658 310.992 294.266 315.6 297.63 321.525C300.994 327.449 302.677 334.178 302.677 341.711C302.677 349.245 300.994 355.974 297.63 361.898C294.266 367.822 289.658 372.467 283.807 375.831C277.955 379.122 271.446 380.768 264.278 380.768ZM264.278 372.101C269.617 372.101 274.408 370.857 278.65 368.371C282.965 365.884 286.33 362.337 288.743 357.729C291.23 353.121 292.474 347.782 292.474 341.711C292.474 335.567 291.23 330.228 288.743 325.694C286.33 321.086 283.002 317.538 278.76 315.052C274.518 312.565 269.69 311.322 264.278 311.322C258.866 311.322 254.039 312.565 249.796 315.052C245.554 317.538 242.19 321.086 239.703 325.694C237.289 330.228 236.083 335.567 236.083 341.711C236.083 347.782 237.289 353.121 239.703 357.729C242.19 362.337 245.554 365.884 249.796 368.371C254.112 370.857 258.939 372.101 264.278 372.101ZM323.975 303.532V351.914C323.975 358.716 325.621 363.763 328.912 367.054C332.276 370.346 336.921 371.991 342.845 371.991C348.696 371.991 353.268 370.346 356.559 367.054C359.923 363.763 361.605 358.716 361.605 351.914V303.532H371.589V351.805C371.589 358.168 370.309 363.543 367.749 367.932C365.189 372.247 361.715 375.465 357.327 377.586C353.012 379.707 348.148 380.768 342.735 380.768C337.323 380.768 332.423 379.707 328.034 377.586C323.719 375.465 320.281 372.247 317.721 367.932C315.235 363.543 313.991 358.168 313.991 351.805V303.532H323.975ZM437.723 325.913C437.723 332.276 435.529 337.579 431.14 341.821C426.825 345.99 420.206 348.074 411.283 348.074H396.582V380H386.598V303.532H411.283C419.913 303.532 426.459 305.617 430.921 309.786C435.455 313.955 437.723 319.33 437.723 325.913ZM411.283 339.846C416.841 339.846 420.937 338.639 423.57 336.226C426.203 333.812 427.52 330.375 427.52 325.913C427.52 316.478 422.107 311.76 411.283 311.76H396.582V339.846H411.283Z" fill="#FFCE00"/>
</svg>
